<svg xmlns="http://www.w3.org/2000/svg" viewBox="0 0 350 150"><path fill="#00abf3" d="M132 14.64v56.93a.68.68 0 0 1-.68.68H66.68a.68.68 0 0 1-.68-.68V23.99a.68.68 0 0 1 .58-.67l64.64-9.36a.68.68 0 0 1 .78.68ZM59.25 25.25v46.27a.73.73 0 0 1-.73.73H9.98a.73.73 0 0 1-.73-.73V32.28a.73.73 0 0 1 .63-.72l48.54-7.03a.73.73 0 0 1 .83.72Z"/><ellipse rx="2.42" ry="2.04" transform="rotate(91.5 70.036 120.362)"/><path d="m304.99 64.64.04 17.72q0 .64-.64.64h-1.76q-.63 0-.63-.63V64.79q0-.77-.77-.77l-2.36-.03q-.62-.01-.62-.62v-1.74q0-.63.63-.63h2.57q.47 0 .51-.48c.13-1.85-.3-3.96.49-5.57 1.58-3.23 10.12-6.56 8.4-1.15q-.11.32-.44.3l-3.12-.12q-.58-.02-.94.44-2.06 2.6-1.23 6.09.12.49.63.49h3.41q.67 0 .77.67l.25 1.66q.09.65-.56.66l-4.01.02q-.62 0-.62.63ZM156.25 57.37v25q0 .63-.63.63h-2q-.62 0-.62-.63V52.63q0-.63.62-.63h3.16q.65 0 .9.6l10.14 23.82a.52.52 0 0 0 .95 0l10.39-23.92q.22-.5.77-.5h2.83q.51 0 .51.51v29.86q0 .63-.64.63h-1.79q-.65 0-.65-.66l.19-24.87a.2.2 0 0 0-.38-.08l-10.9 25.26a.89.89 0 0 1-1.64 0l-10.95-25.33q-.26-.61-.26.05ZM314.76 60.21l-.02-3.32q0-.51.48-.69l2.17-.83q.61-.23.61.43v4.7q0 .5.5.5h4.13q.62 0 .62.63v1.74q0 .63-.63.63h-4.07q-.49 0-.51.5c-.07 2.82-.79 13.46 1 15.14q.43.39 1.01.38l2.64-.08q.5-.02.55.47.28 2.52-2.47 2.6c-8.47.25-6.05-12.71-5.94-18.17A.83.82.7 0 0 314 64h-2.38q-.62 0-.62-.62v-1.63q0-.75.75-.75h2.23q.79 0 .78-.79Z"/><rect width="3" height="22" x="190.75" y="61.01" rx=".64"/><path d="M211.39 63.98c-14.7-.98-9.98 22.14 2.73 14.83q.47-.27.68.22c1.76 4.03-5.76 4.12-7.71 3.72-8.49-1.75-10.24-12.43-5.04-18.23 2.94-3.27 8.5-4.67 12.6-2.3q.49.29.45.85l-.14 1.73q-.06.77-.74.41c-.99-.53-1.68-1.16-2.83-1.23ZM222.62 64.92a.5.49 56.7 0 0 .96.2q1.55-4.31 6.35-4.16.57.02.57.59v2.19q0 .54-.53.42c-9.34-2.11-7.42 13.13-7.12 18.15q.04.71-.67.7l-1.79-.03q-.64-.01-.64-.65v-20.7q0-.63.62-.63h1.68q.8 0 .75.8l-.18 3.12Z"/><path d="M240.639 82.901a11.08 10.55 100.3 0 1-8.399-12.787 11.08 10.55 100.3 0 1 12.361-9.015A11.08 10.55 100.3 0 1 253 73.886a11.08 10.55 100.3 0 1-12.361 9.015Zm1.967-2.621a8.27 7.41 90.1 0 0 7.424-8.257 8.27 7.41 90.1 0 0-7.396-8.283 8.27 7.41 90.1 0 0-7.424 8.257 8.27 7.41 90.1 0 0 7.396 8.283Z"/><path d="M260.93 65.74c-1.95 3.6 5.82 5.8 7.99 6.85 3.75 1.81 2.6 7.65-1.07 9.33q-5.11 2.34-10.07-.24-.53-.28-.53-.88v-1.61q0-.78.69-.41 3.22 1.7 7.31 1.16c4.06-.54 3.37-4.85-.03-6.02-2.89-.99-6.46-2.24-7.52-5.32-2.28-6.62 7.44-8.7 12-6.57q.53.25.54.84l.03 2.05q.01.55-.48.3c-2.53-1.33-7.29-2.38-8.86.52Z"/><path d="M282.658 82.895a11.08 10.55 100.2 0 1-8.421-12.773 11.08 10.55 100.2 0 1 12.345-9.037 11.08 10.55 100.2 0 1 8.421 12.773 11.08 10.55 100.2 0 1-12.345 9.037Zm1.871-2.636a8.25 7.4 90.7 0 0 7.5-8.159 8.25 7.4 90.7 0 0-7.298-8.34 8.25 7.4 90.7 0 0-7.5 8.16 8.25 7.4 90.7 0 0 7.298 8.34Z"/><path fill="#00abf3" d="m131.88 78.99.01 56.67a1.01 1.01 0 0 1-1.15 1l-63.87-9.06a1.01 1.01 0 0 1-.87-1V79.24a1.01 1.01 0 0 1 1.01-1.01l63.86-.25a1.01 1.01 0 0 1 1.01 1.01ZM9.49 118.5l-.01-39.24a1.01 1.01 0 0 1 1.01-1.01h48.04q.52 0 .52.53l-.04 46.66q0 .96-.96.83-22.56-3.19-43.26-6.15c-1.47-.21-3.25-.05-4.89-.93q-.41-.23-.41-.69Z"/><path d="M166.92 103.32c-.09-1.27-1.39-10.62 1.7-9.14q.38.18.38.6v20.61q0 .64-.64.62l-1.01-.04q-.66-.02-.65-.68l.16-8.7q.01-.59-.58-.59h-10.54q-.66 0-.63.66c.06 1.35 1.29 10.48-1.66 9.27q-.45-.19-.45-.68V94.77q0-.5.47-.68c2.95-1.13 1.71 7.88 1.67 9.28q-.01.63.62.63h10.53q.68 0 .63-.68ZM250.52 112.55q2.63-8.4 5.85-16.8c.45-1.18.18-1.5 1.8-1.85a.71.71 0 0 1 .81.93l-7.52 20.57q-.23.62-.88.59l-1.22-.05q-.58-.03-.77-.57l-7.36-20.63q-.19-.54.35-.71c1.31-.4 2.01.29 2.41 1.5q2.81 8.52 5.84 17.03a.37.36 43.9 0 0 .69-.01ZM178.85 113.09q2.03-5.79 4.14-11.89c.36-1.04.93-1.69 2.05-1.15q.5.23.3.75-5.65 14.65-7.15 18.38-1.44 3.57-5.27 3.86-.46.03-.78-.3-.63-.66-.05-1.37.36-.42.91-.36c2.68.29 3.61-2.67 4.21-4.69q.16-.52-.04-1.03l-5.31-14.07q-.46-1.22.84-1.22h.56q.55 0 .72.52l4.16 12.56a.38.37 45.5 0 0 .71.01ZM190.75 102.61c1.55-1.31 3.16-2.75 5.3-2.59 10.34.77 6.59 21.47-5.04 14.24q-.82-.52-.81.46l.08 7.58q0 .65-.64.67l-1 .04q-.64.02-.64-.62v-21.78q0-.63.64-.62l1.08.03q.77.02.63.78l-.27 1.41q-.23 1.16.67.4Zm3.844 11.593a6.23 4.96 94.2 0 0 5.403-5.85 6.23 4.96 94.2 0 0-4.49-6.576 6.23 4.96 94.2 0 0-5.404 5.85 6.23 4.96 94.2 0 0 4.49 6.576ZM207.03 109.68c.1 4.84 5.67 5.29 8.96 3.25q.36-.23.56.15c1.53 2.85-12.18 6.49-11.8-5.57.31-9.92 13.81-10.01 13.1.93q-.03.56-.59.56h-9.56q-.68 0-.67.68Zm.52-2.67 7.72-.02a.44.44 0 0 0 .44-.45v-.34a4.22 4.18 89.8 0 0-4.2-4.2h-.24a4.22 4.18 89.8 0 0-4.16 4.23v.34a.44.44 0 0 0 .44.44ZM223.8 102.65q1.34-1.89 3.48-2.81a1.3 1.29-37.7 0 1 1.3.16q.9.66.41 1.55-.27.49-.83.46c-6.61-.35-4.93 9.09-4.91 13.28q.01.57-.56.63l-1.02.1q-.67.07-.67-.61v-14.8q0-.63.64-.62l1.1.03q.8.02.61.8l-.36 1.45q-.6 2.37.81.38Z"/><rect width="8.48" height="2" x="-4.24" y="-1" rx=".97" transform="rotate(-.1 61423.954 -134574.359)"/></svg>